PathFileType	4	(X/Y/Z)	Patient5_TMGait_0pt45_1_right_06.trc.trc
DataRate	CameraRate	NumFrames	NumMarkers	Units	OrigDataRate	OrigDataStartFrame	OrigNumFrames
63.636363636364	63.636363636364	7	32	mm	63.636363636364	71	       141
Frame#	Time	R.ASIS			L.ASIS			Chest			R.Shoulder			Neck			L.Shoulder			L.Elbow			L.Wrist			R.Elbow			R.Wrist			L.Thigh.Superior			L.Thigh.Lateral			L.Thigh.Inferior			L.Patella			L.Shank.Superior			L.Shank.Lateral			L.Shank.Inferior			L.Heel			L.Midfoot.Lateral			L.Midfoot.Superior			L.Toe			R.Thigh.Superior			R.Thigh.Lateral			R.Thigh.Inferior			R.Patella			R.Shank.Superior			R.Shank.Lateral			R.Shank.Inferior			R.Heel			R.Midfoot.Lateral			R.Midfoot.Superior			R.Toe			
		X1	Y1	Z1	X2	Y2	Z2	X3	Y3	Z3	X4	Y4	Z4	X5	Y5	Z5	X6	Y6	Z6	X7	Y7	Z7	X8	Y8	Z8	X9	Y9	Z9	X10	Y10	Z10	X11	Y11	Z11	X12	Y12	Z12	X13	Y13	Z13	X14	Y14	Z14	X15	Y15	Z15	X16	Y16	Z16	X17	Y17	Z17	X18	Y18	Z18	X19	Y19	Z19	X20	Y20	Z20	X21	Y21	Z21	X22	Y22	Z22	X23	Y23	Z23	X24	Y24	Z24	X25	Y25	Z25	X26	Y26	Z26	X27	Y27	Z27	X28	Y28	Z28	X29	Y29	Z29	X30	Y30	Z30	X31	Y31	Z31	X32	Y32	Z32	

71	10.720000000000	1013.553721468718	969.727945643643	576.413638317907	1033.643793652647	955.959790787384	338.153123205861	1115.707861926239	1425.703677669892	463.654057226986	1014.317373991619	1493.559742069750	627.414906252112	996.183095637559	1553.720256184199	442.114819035873	1061.401165428821	1495.226174190189	264.005344500270	961.440912396594	1185.295494227487	134.595725512562	1053.504823053169	911.309284774326	131.811064816782	921.675033452081	1177.339921372641	768.701465221112	1133.333580985520	983.946344468686	722.788889374796	1091.931756188490	757.673515220764	333.066881245649	1042.132689216255	673.570625213904	287.775016164764	1119.308140077308	635.426493802368	363.310112116890	1145.325131294369	519.148316517064	375.123160230545	1106.541543859247	408.478607527415	386.504045934240	1061.115593370137	336.210605802854	296.801376071477	1083.754079077165	282.523456618692	386.797649516395	970.642275105187	49.745417344945	368.928825704269	1063.008621438018	27.336856449335	313.243692163384	1156.531489464303	89.253323550420	365.099988789152	1263.912484490242	45.851734795677	374.726618195322	989.237087956302	731.997144239077	593.818254501421	883.198036789344	671.422507892978	639.864172248894	957.257174354409	602.816081111155	574.577663884775	934.422395570636	504.265615245138	602.799317909266	864.387690410228	415.556627237794	559.628017970352	770.099363333272	373.297492583772	633.756556228282	807.384552312892	288.340990418388	556.959050833489	624.842523939306	94.149505090727	516.028176211050	693.969730715323	46.700025524192	588.873532194538	809.457773103702	91.570083757169	574.356218947184	901.046707583668	41.822106279744	571.738210113626	
72	10.735714285714	1014.612305553088	972.693187212775	572.806385883662	1036.858548840672	956.971294769359	335.663451299412	1118.197121436958	1427.559146067950	461.783683345981	1014.791520205742	1495.734072929693	624.090833670381	999.101008787944	1555.642179497019	438.455710130999	1066.946869305247	1497.020134192177	261.441778419850	968.703756605678	1186.966470898423	130.905379581132	1062.795963000342	913.742147510613	129.861569090413	919.297391655497	1179.960534019366	764.447237704902	1130.806373094247	985.933083506281	720.325923835011	1092.952860501416	756.824964974124	330.752495743838	1041.801486120137	673.223887320742	285.636404976906	1117.904695971898	634.483033562354	361.911040453873	1142.427180051852	518.228683417522	374.559737736578	1102.711339524466	408.016156646137	386.053632414705	1057.444274131246	335.764195504745	296.361703326290	1078.652656185811	282.297941943671	386.577441862274	963.925184162201	49.642997387394	368.774055319494	1056.297163954261	27.402673551095	313.112742095982	1149.655624834071	89.321586296707	365.120750811043	1257.264808505486	45.931903104540	374.443114220206	993.640442593257	734.966743488232	593.666473006283	888.413214913954	673.341574669797	639.642885742489	964.492731602632	604.984914948804	576.121353098974	942.298860850837	505.512096470929	605.211531463276	869.713514289108	416.409517458864	561.619458904467	773.961762023099	376.575190217663	635.391261378926	809.179730133371	290.765086305746	558.754158471816	621.326434511494	103.265813708315	517.393010935910	688.663838593822	52.165284189306	589.481194630914	805.754312539816	92.883746098056	575.787884422603	894.797013762817	41.677424517787	571.858514014365	
73	10.751428571429	1015.397176122096	975.412478561095	569.477523432432	1039.709784682780	957.843453353119	333.205011184082	1120.429742659905	1429.131397472089	460.033245882831	1014.935173785573	1497.642587960210	620.752080605527	1001.860383280345	1557.362535633883	434.852158192537	1072.516379291891	1498.630019983755	259.057348369577	976.204764436843	1188.570325459743	127.053558126275	1072.115357034990	916.062020528403	127.913710685492	917.279600195184	1182.271473674098	760.430159287587	1128.481383616671	987.581941591197	717.705565789571	1093.497835212079	755.988394333558	328.857570577320	1041.234725818564	672.895820686433	283.577656361766	1116.033113879678	633.488080638748	360.731303907571	1139.005846894706	517.258836982390	374.019547370618	1098.473421249298	407.529182871261	385.581358164008	1053.461946741557	335.232616089305	295.893865833051	1073.311218641859	282.041882607247	386.340111553842	957.199302063265	49.584148793514	368.644300935654	1049.593775850904	27.441011654474	313.044952276263	1142.790144238407	89.305262991172	365.251010109676	1250.611401167958	45.927821304998	374.311396079465	998.387639531793	737.946225578231	593.656948252336	894.348662636676	675.034528000443	639.792952325857	972.567014591828	607.141100146540	578.027976971107	951.151620580470	506.669193649351	607.941369686542	875.992394857808	417.310024926831	563.993164023055	778.902059239507	379.950191414316	637.564157850973	811.730070898649	293.377848577132	560.857886462594	618.482952468005	113.252164062836	519.140099407130	683.816013198018	58.366238933249	590.355497492191	802.453582374105	94.608219685453	577.394418869099	888.844520109650	41.563082143895	572.098935882391	
74	10.767142857143	1015.926281051297	977.848083245317	566.488693026746	1042.209960193338	958.604333391707	330.786270247386	1122.359508527535	1430.403786035675	458.379612339481	1014.754196697960	1499.270555798472	617.420045801862	1004.407534186478	1558.863331469547	431.320670887900	1077.983221882137	1500.010837292028	256.850303829491	983.981882456986	1190.015818754854	123.086211104985	1081.441735484239	918.147670020901	125.970793776495	915.486758552928	1184.222899732953	756.557224025333	1126.338903567881	988.908199758337	715.039446807237	1093.702627281171	755.277700200120	327.431486723400	1040.623539644776	672.670835888714	281.642383947081	1113.926891952931	632.525926678095	359.754540349739	1135.296426241158	516.273702329017	373.450434187753	1094.010228272205	407.026198997961	385.036001684327	1049.284853260400	334.664077315271	295.333826308669	1067.826097330309	281.766386253163	386.033214739436	950.404358240242	49.573797065813	368.516176332736	1042.828688502676	27.455924251614	313.001968241381	1135.890464403896	89.216114092418	365.425991703597	1243.895941047649	45.820306945368	374.277050241389	1003.363844254804	740.920320338335	593.800269871376	900.870840306884	676.551454672898	640.286367410679	981.276717975493	609.339529258861	580.212211999349	960.764521419629	507.822701744536	610.883077176414	883.118212977241	418.355098175951	566.685316731496	784.811688115868	383.480365277628	640.202988720840	814.989821067830	296.236187477798	563.208111737626	616.431636713559	124.087410158231	521.258120798080	679.513372439595	65.344664119667	591.507273096784	799.593725151134	96.818629215861	579.170939352714	883.247107704584	41.453120919631	572.509728339283	
75	10.782857142857	1016.234404315538	980.026995714915	563.815332867581	1044.376463947365	959.268358408805	328.409037068552	1123.957133889670	1431.398619182198	456.804983605134	1014.271630331270	1500.629913471902	614.122690241663	1006.701193974377	1560.150771660811	427.888919285619	1083.212195650844	1501.157045364924	254.815167953977	992.003148618397	1191.249962655717	119.082045307719	1090.745495563206	919.937260377112	124.030135233494	913.765218303823	1185.799172931826	752.729605779111	1124.334424026164	989.954667534813	712.438002270883	1093.658126555244	754.715575749746	326.352063612151	1040.013834195449	672.555040818284	279.821347523892	1111.747877920487	631.632980392324	358.881844092755	1131.488953098841	515.295342740074	372.791864858640	1089.472330656484	406.512282293671	384.389064429512	1044.991106545119	334.091282331457	294.661474312781	1062.283579706829	281.481305279307	385.632849899772	943.519148756313	49.601769612715	368.380391139952	1035.972209330436	27.454278585467	312.957544024521	1128.937325595182	89.081837428817	365.592073318845	1237.095538291265	45.631018829369	374.284913923883	1008.439471608450	743.916842570255	594.124259945886	907.787245164823	677.992435244195	641.071144485615	990.365021158692	611.659337861094	582.578075561591	970.870679186829	509.092923119520	613.944841613180	890.917202258173	419.655492837854	569.624678159067	791.510348992957	387.232095930639	643.210205064691	818.882525567874	299.405179364690	565.740049448729	615.284735472375	135.729661570894	523.713535939180	675.828473464177	73.118782011825	592.925775071877	797.205110737615	99.558801672931	581.100857781533	878.022278373840	41.311434757297	573.121046112556	
76	10.798571428571	1016.369820743807	982.014707605665	561.380043966668	1046.226813768033	959.841096460759	326.071799392007	1125.211934242576	1432.169430370857	455.296672673850	1013.511161794640	1501.754494637428	610.887215706668	1008.715105015945	1561.251052310655	424.588153575510	1088.080127548839	1502.098823824279	252.940668959424	1000.163372773287	1192.260633511250	115.139011849775	1099.984829240311	921.433047866826	122.081313159560	911.970247785301	1187.015019324789	748.859940799813	1122.411471856032	990.784034677717	709.986429027025	1093.416576703343	754.259505488051	325.397109162473	1039.343540511846	672.506286717564	278.070247080945	1109.583387290269	630.807213702631	357.972431296367	1127.708176775184	514.334233772428	371.984701762132	1084.960291840162	405.990595031654	383.629244014928	1040.614906962790	333.534405660404	293.885735244866	1056.747354570230	281.195735913545	385.136480677083	936.549274727463	49.651478009518	368.238285162274	1029.024159227781	27.442562041808	312.899418981152	1121.931006067912	88.932486501343	365.713666204680	1230.211615032608	45.398503848945	374.292786252786	1013.488373305936	746.994755997261	594.651624070427	914.874715618384	679.481702190220	642.079137302104	999.556842998792	614.178859240782	585.031013573411	981.183889788584	510.606089705538	617.058307446674	899.162498344739	421.304247875989	572.733509709653	798.768568044508	391.259224381320	646.478348277934	823.302777062376	302.939305924306	568.397802299059	615.118121455287	148.101418817450	526.466433418450	672.802064846005	81.664529274319	594.584961688252	795.293777835943	102.826230515100	583.156987582446	873.128340588188	41.097120225211	573.925268860978	
77	10.814285714286	1016.387286216205	983.889723037966	559.089534670419	1047.777190978734	960.329305869113	323.770543040943	1126.132021313532	1432.788408566073	453.844365042190	1012.491610009238	1502.692181501668	607.734860081188	1010.438951130044	1562.204931765203	421.445788515125	1092.493653829052	1502.892981352901	251.209086820927	1008.297155951474	1193.072346717544	111.357138132101	1109.104801793479	922.694310460451	120.106508451203	909.986518435786	1187.909995073986	744.884376388680	1120.512718806725	991.471610221346	707.730723576180	1093.001876913296	753.839111246863	324.331633501131	1038.496359271119	672.469069850481	276.330712973789	1107.456049463758	630.022320506543	356.883676870167	1124.008863215377	513.393591856582	370.973999015417	1080.518572397853	405.465602696198	382.749650843343	1036.148834429726	333.006513966498	293.023129401792	1051.252158499641	280.919506009310	384.549107759303	929.514120328659	49.706946781061	368.095541205703	1022.001171067790	27.424287295762	312.825996525982	1114.883725920919	88.792452084872	365.770781165016	1223.258578335862	45.161463073723	374.275456664366	1018.395561227975	750.220804605829	595.363320358527	921.908817093094	681.139590457762	643.235330779616	1008.589025435850	616.955693287782	587.485431089181	991.426695064953	512.466542372519	620.174999262568	907.599147664765	423.355179997296	575.927549034308	806.334997198064	395.587103091751	649.903844911683	828.116488539487	306.865620341647	571.139275797518	615.941902669637	161.079102405327	529.486670143886	670.427981310632	90.901233628907	596.453576263925	793.827916813934	106.565097221754	585.305888579847	868.460191186930	40.772652351164	574.869245313637	
